<?xml version="1.0" standalone="no"?>
<!DOCTYPE svg PUBLIC "-//W3C//DTD SVG 20010904//EN"
 "http://www.w3.org/TR/2001/REC-SVG-20010904/DTD/svg10.dtd">
<svg version="1.0" xmlns="http://www.w3.org/2000/svg"
 width="400.000000pt" height="400.000000pt" viewBox="0 0 400.000000 400.000000"
 preserveAspectRatio="xMidYMid meet">

<g transform="translate(0.000000,400.000000) scale(0.100000,-0.100000)"
fill="#4f00a3" stroke="none">
<path d="M283 3981 c-104 -38 -199 -124 -250 -230 l-28 -56 0 -1695 0 -1695
29 -60 c38 -78 133 -173 211 -211 l60 -29 1695 0 1695 0 58 28 c84 42 167 123
208 204 l34 68 0 1695 0 1695 -34 67 c-41 83 -128 168 -208 206 l-58 27 -1680
2 c-1618 2 -1682 2 -1732 -16z m2088 -811 c11 -7 19 -21 19 -38 0 -15 -140
-486 -310 -1047 -415 -1363 -377 -1244 -404 -1256 -34 -16 -66 4 -66 39 0 34
676 2259 696 2290 16 24 35 28 65 12z m-909 -267 c10 -9 18 -26 18 -37 0 -14
-135 -156 -422 -443 l-423 -423 423 -423 c262 -262 422 -429 422 -441 0 -24
-28 -56 -49 -56 -20 0 -921 900 -921 920 0 19 900 920 919 920 8 0 23 -7 33
-17z m1575 -435 c249 -249 453 -460 453 -468 0 -19 -900 -920 -919 -920 -22 0
-51 31 -51 54 0 14 135 156 422 443 l423 423 -423 423 c-262 262 -422 429
-422 441 0 24 28 56 49 56 9 0 220 -204 468 -452z"/>
</g>
</svg>
